<mxfile host="app.diagrams.net" modified="2020-11-23T12:52:23.108Z" agent="5.0 (Windows NT 10.0; WOW64) AppleWebKit/537.36 (KHTML, like Gecko) Chrome/78.0.3904.108 Safari/537.36" etag="Oxmb6UurhVE7cVTZZa0U" version="13.10.1" type="github">
  <diagram id="tlwxFYN7nEPO611R5yER" name="Page-1">
    <mxGraphModel dx="1376" dy="754" grid="1" gridSize="10" guides="1" tooltips="1" connect="1" arrows="1" fold="1" page="1" pageScale="1" pageWidth="850" pageHeight="1100" math="0" shadow="0">
      <root>
        <mxCell id="0" />
        <mxCell id="1" parent="0" />
        <mxCell id="JlzYUt2903bJceBeCsOK-10" value="商品,活动,券,评论" style="edgeStyle=orthogonalEdgeStyle;rounded=0;orthogonalLoop=1;jettySize=auto;html=1;exitX=0;exitY=0;exitDx=0;exitDy=0;entryX=1;entryY=0.5;entryDx=0;entryDy=0;curved=1;" parent="1" source="JlzYUt2903bJceBeCsOK-1" target="JlzYUt2903bJceBeCsOK-2" edge="1">
          <mxGeometry relative="1" as="geometry">
            <mxPoint x="470" y="457" as="sourcePoint" />
            <Array as="points">
              <mxPoint x="330" y="376" />
              <mxPoint x="330" y="300" />
            </Array>
          </mxGeometry>
        </mxCell>
        <mxCell id="JlzYUt2903bJceBeCsOK-1" value="商品管理系统" style="ellipse;whiteSpace=wrap;html=1;strokeWidth=2;" parent="1" vertex="1">
          <mxGeometry x="310" y="360" width="230" height="110" as="geometry" />
        </mxCell>
        <mxCell id="JlzYUt2903bJceBeCsOK-8" value="评论,评论删除,领券" style="edgeStyle=orthogonalEdgeStyle;rounded=0;orthogonalLoop=1;jettySize=auto;html=1;curved=1;entryX=0.109;entryY=0.164;entryDx=0;entryDy=0;entryPerimeter=0;exitX=1;exitY=0.75;exitDx=0;exitDy=0;" parent="1" source="JlzYUt2903bJceBeCsOK-2" target="JlzYUt2903bJceBeCsOK-1" edge="1">
          <mxGeometry relative="1" as="geometry">
            <Array as="points">
              <mxPoint x="220" y="315" />
              <mxPoint x="220" y="378" />
            </Array>
          </mxGeometry>
        </mxCell>
        <mxCell id="JlzYUt2903bJceBeCsOK-2" value="用户" style="rounded=0;whiteSpace=wrap;html=1;" parent="1" vertex="1">
          <mxGeometry x="50" y="270" width="150" height="60" as="geometry" />
        </mxCell>
        <mxCell id="JlzYUt2903bJceBeCsOK-6" value="评论审核,对象下线控制,全平台券" style="rounded=0;orthogonalLoop=1;jettySize=auto;html=1;edgeStyle=orthogonalEdgeStyle;curved=1;" parent="1" source="JlzYUt2903bJceBeCsOK-4" target="JlzYUt2903bJceBeCsOK-1" edge="1">
          <mxGeometry relative="1" as="geometry">
            <Array as="points">
              <mxPoint x="675" y="370" />
            </Array>
          </mxGeometry>
        </mxCell>
        <mxCell id="JlzYUt2903bJceBeCsOK-4" value="平台管理员" style="rounded=0;whiteSpace=wrap;html=1;" parent="1" vertex="1">
          <mxGeometry x="600" y="270" width="150" height="60" as="geometry" />
        </mxCell>
        <mxCell id="JlzYUt2903bJceBeCsOK-7" value="商品,活动.券,上下线控制" style="edgeStyle=none;rounded=0;orthogonalLoop=1;jettySize=auto;html=1;" parent="1" source="JlzYUt2903bJceBeCsOK-5" target="JlzYUt2903bJceBeCsOK-1" edge="1">
          <mxGeometry relative="1" as="geometry" />
        </mxCell>
        <mxCell id="JlzYUt2903bJceBeCsOK-5" value="店铺管理员" style="rounded=0;whiteSpace=wrap;html=1;" parent="1" vertex="1">
          <mxGeometry x="350" y="570" width="150" height="60" as="geometry" />
        </mxCell>
      </root>
    </mxGraphModel>
  </diagram>
</mxfile>
